HIERARCHY
ROOT pelvis
{
  OFFSET 0 100 0
  CHANNELS 6 Xposition Yposition Zposition Zrotation Xrotation Yrotation
  JOINT pelvis_right_femur
  {
    OFFSET -10.78128 -3.44521 -0.5502486
    CHANNELS 3 Zrotation Xrotation Yrotation
    JOINT right_femur_tibia
    {
      OFFSET -0.8047443 -44.0398 -0.1307829
      CHANNELS 3 Zrotation Xrotation Yrotation
      JOINT right_tibia_foot
      {
        OFFSET 3.006224 -47.83518 -5
        CHANNELS 3 Zrotation Xrotation Yrotation
        End Site
        {
          OFFSET 0 -5 15
        }
      }
    }
  }
  JOINT pelvis_left_femur
  {
    OFFSET 10.78128 -3.44521 -0.5502486
    CHANNELS 3 Zrotation Xrotation Yrotation
    JOINT left_femur_tibia
    {
      OFFSET 0.8047443 -44.0398 -0.1307829
      CHANNELS 3 Zrotation Xrotation Yrotation
      JOINT left_tibia_foot
      {
        OFFSET -4.370144 -48.10324 -4.275266
        CHANNELS 3 Zrotation Xrotation Yrotation
        End Site
        {
          OFFSET 0 -5 15
        }
      }
    }
  }
  JOINT pelvis_spine1
  {
    OFFSET 0 6.468898 -3.129235
    CHANNELS 3 Zrotation Xrotation Yrotation
    JOINT spine1
    {
      OFFSET 0 23.15396 4.99043
      CHANNELS 3 Zrotation Xrotation Yrotation
      JOINT spine2
      {
        OFFSET 0 20.79997 -5.064912
        CHANNELS 3 Zrotation Xrotation Yrotation
        JOINT neck
        {
          OFFSET 0 14.38658 9.616178
          CHANNELS 3 Zrotation Xrotation Yrotation
          End Site
          {
            OFFSET 0 20 0
          }
        }
      }
      JOINT right_manubrium
      {
        OFFSET -5.722621 16.35077 3.967754
        CHANNELS 3 Zrotation Xrotation Yrotation
        JOINT right_clavicle
        {
          OFFSET -13.16364 1.694482 -4.693211
          CHANNELS 3 Zrotation Xrotation Yrotation
          JOINT right_humerus
          {
            OFFSET -28.5034 -0.3100689 -2.792744
            CHANNELS 3 Zrotation Xrotation Yrotation
            JOINT right_radius
            {
              OFFSET -25.15693 0.02248979 -1.271978
              CHANNELS 3 Zrotation Xrotation Yrotation
              End Site
              {
                OFFSET -15 0 0
              }
            }
          }
        }
      }
      JOINT left_manubrium
      {
        OFFSET 5.722621 16.35077 3.967754
        CHANNELS 3 Zrotation Xrotation Yrotation
        JOINT left_clavicle
        {
          OFFSET 13.16364 1.694482 -4.693211
          CHANNELS 3 Zrotation Xrotation Yrotation
          JOINT left_humerus
          {
            OFFSET 29.39168 -1.063119 -2.237045
            CHANNELS 3 Zrotation Xrotation Yrotation
            JOINT left_radius
            {
              OFFSET 24.59957 -0.9528479 0.9047498
              CHANNELS 3 Zrotation Xrotation Yrotation
              End Site
              {
                OFFSET 15 -0 -0
              }
            }
          }
        }
      }
    }
  }
}
MOTION
Frames: 21
Frame Time: 0.0416666666667
-1047.783 115.737 2633.51 -4.075997 -0.6053845 -59.08451 7.614879 -12.42443 0.5849081 -0 14.77606 -0 -12.00073 -2.80442 -2.003248 -3.177591 2.140449 -7.419833 -0 58.70485 -0 -1.958232 -4.18937 11.57906 -0.2071881 -0.88342 4.141166 1.321039 12.74221 -7.994982 0.4229392 21.16237 7.03119 4.64614 -21.93668 6.201302 -1.752339 -19.65957 11.7338 95.30097 27.42298 -22.94314 -0 0 8.303932 -19.66691 8.860622 6.385985 6.687863 -27.3058 -7.439325 -84.4348 9.417459 12.34439 0 0 -28.26781 16.23947 10.91324 -9.390121
-1052.598 117.4412 2636.365 -3.897925 -1.40115 -59.74752 6.606162 -7.268886 0.5065475 -0 12.68227 -0 -11.25777 -4.259865 -1.930535 -2.904782 -3.94355 -6.783829 -0 61.91405 -0 -3.179065 -3.499002 11.75381 -0.01954423 -0.8932746 4.714954 1.2916 13.24433 -7.821637 0.3781285 21.23176 6.665859 4.362161 -21.84698 5.971074 -1.96089 -20.65571 12.02512 95.18515 27.06145 -22.06007 -0 0 9.716474 -19.34951 8.640415 6.324897 5.748065 -26.85409 -7.753277 -85.62373 9.448103 15.12863 0 0 -25.14266 15.74759 10.85498 -8.701991
-1057.16 118.7984 2639.043 -4.060931 -2.340774 -60.34792 5.739555 -2.169033 0.4591135 -0 10.31738 -0 -10.58835 -5.725168 -1.539793 -2.260258 -10.24822 -5.986425 -0 61.20239 -0 -3.495011 -3.479182 12.70258 0.1271747 -0.937805 5.455292 1.179238 13.76346 -7.547287 0.3160315 21.26908 6.249206 4.084323 -21.61329 5.653844 -2.066026 -21.86975 12.31583 94.75999 26.83729 -20.77289 -0 0 11.63391 -19.02083 8.467712 6.352065 4.798083 -26.29472 -8.023164 -87.03741 9.417407 18.47187 0 0 -21.59035 15.21429 10.81205 -7.89242
-1061.492 119.5929 2641.608 -4.335254 -2.983072 -60.84672 5.279073 2.502087 0.4297679 -0 8.125978 -0 -10.07249 -7.52596 -0.9935295 -1.014885 -16.19677 -4.827651 -0 55.69847 -0 -3.299478 -3.738417 13.88869 0.2185715 -1.03426 6.357463 0.9722208 14.24916 -7.174229 0.2400887 21.25758 5.771507 3.791891 -21.20141 5.253583 -2.059526 -23.2904 12.56847 93.9996 26.75419 -19.0898 -0 0 14.02321 -18.67756 8.386419 6.519676 3.894889 -25.64891 -8.21097 -88.58331 9.351342 22.2732 0 0 -17.97974 14.61527 10.79779 -6.859832
-1065.655 119.7469 2644.159 -4.389228 -2.959815 -61.22629 5.286178 6.341794 0.3400515 -0 6.755348 -0 -9.892245 -9.873576 -0.4283418 0.7935437 -21.19201 -3.333956 -0 45.84495 -0 -2.7313 -3.797536 14.82047 0.2501273 -1.187179 7.377622 0.6662085 14.64193 -6.721429 0.1555429 21.17892 5.237239 3.472117 -20.58495 4.787277 -1.926287 -24.8503 12.74214 92.90234 26.82316 -17.07626 -0 0 16.77443 -18.33237 8.462004 6.88514 3.113825 -24.95087 -8.274854 -90.11621 9.284684 26.31486 0 0 -14.79156 13.93611 10.83068 -5.517733
-1069.761 119.3601 2646.833 -4.129862 -2.27054 -61.50972 5.55828 9.122493 0.1584443 -0 6.794396 -0 -9.942637 -12.50616 0.01890356 2.709723 -24.45212 -1.862668 -0 33.64003 -0 -1.903171 -3.411613 15.25459 0.2386841 -1.389749 8.438268 0.2697086 14.90189 -6.226579 0.06739403 21.02027 4.659854 3.131474 -19.73621 4.269565 -1.644629 -26.44052 12.80999 91.49301 27.03789 -14.855 -0 0 19.73699 -18.01937 8.771106 7.478788 2.523049 -24.25146 -8.201015 -91.49115 9.238886 30.32653 0 0 -12.43173 13.18312 10.94684 -3.836583
-1073.951 118.6504 2649.769 -3.849029 -1.369803 -61.773 5.759917 11.05612 0.02290937 -0 8.356363 -0 -9.831354 -14.78519 0.1467361 4.030364 -25.43073 -0.9951905 -0 22.21765 -0 -1.089581 -2.724972 15.32139 0.2205899 -1.627221 9.435002 -0.1797112 15.02438 -5.754001 -0.02072397 20.77731 4.062702 2.803142 -18.64382 3.708984 -1.188721 -27.92253 12.77318 89.83869 27.3587 -12.62561 -0 0 22.71752 -17.77039 9.366504 8.261713 2.16099 -23.62574 -8.025553 -92.59387 9.204872 34.01277 0 0 -11.10402 12.39088 11.18755 -1.88257
-1078.32 117.7963 2653.014 -4.003903 -0.8635907 -62.11321 5.710059 12.70414 0.0661893 -0 10.67432 -0 -9.435335 -16.23071 -0.1659644 4.419284 -24.54686 -1.078943 -0 14.22528 -0 -0.6302906 -2.180281 15.44243 0.230818 -1.867848 10.24406 -0.6008726 15.0437 -5.388883 -0.1029022 20.47627 3.496034 2.534769 -17.40737 3.14254 -0.5843963 -29.13262 12.66995 88.13554 27.70175 -10.69143 -0 0 25.39486 -17.58734 10.18421 9.092569 2.0078 -23.15896 -7.829945 -93.34643 9.16291 37.02773 0 0 -10.7457 11.63118 11.54223 0.1239263
-1082.871 116.8719 2656.48 -4.711301 -0.9532972 -62.59121 5.493536 14.41934 0.1818246 -0 12.55348 -0 -9.043457 -16.91307 -0.7688689 4.174781 -22.98597 -1.906661 -0 10.11347 -0 -0.6987583 -2.130608 15.93737 0.2727523 -2.059894 10.77365 -0.9051571 15.02108 -5.178655 -0.1653508 20.19483 3.044402 2.351703 -16.31821 2.673268 0.00141584 -29.94664 12.56246 86.74873 27.95441 -9.344136 -0 0 27.36582 -17.46352 10.9812 9.774605 1.977163 -22.88367 -7.687117 -93.74969 9.120157 39.07585 0 0 -10.97749 11.01036 11.89846 1.80105
-1087.567 115.9127 2660.036 -5.633493 -1.359394 -63.2046 5.235335 16.12061 0.1742452 -0 13.47458 -0 -8.843433 -17.21431 -1.349432 3.710964 -21.66878 -3.039065 -0 8.531645 -0 -1.221961 -2.562308 16.74042 0.3232826 -2.160781 11.02473 -1.065 15.00228 -5.089099 -0.1928389 20.01386 2.778827 2.229056 -15.69881 2.420445 0.3277404 -30.36829 12.49139 86.00532 28.05202 -8.6568 -0 0 28.41944 -17.41513 11.49814 10.20139 1.973416 -22.74276 -7.599304 -93.89105 9.110795 40.12003 0 0 -11.33447 10.61335 12.11263 2.830708
-1092.39 114.9468 2663.597 -6.410534 -1.760994 -63.91211 4.959429 17.64107 0.009240062 -0 13.73301 -0 -8.753339 -17.40993 -1.720564 3.215264 -20.84259 -4.175514 -0 8.003914 -0 -1.998287 -3.240016 17.6019 0.3692019 -2.169554 11.07566 -1.119016 14.99603 -5.057122 -0.1837876 19.94649 2.690664 2.12153 -15.61069 2.406194 0.3087461 -30.51001 12.45465 85.9201 28.02056 -8.470948 -0 0 28.69499 -17.44932 11.6871 10.41799 1.951939 -22.65458 -7.525416 -93.87123 9.161058 40.40723 0 0 -11.6183 10.42327 12.14282 3.237655
-1097.334 113.9874 2667.132 -6.9283 -2.041684 -64.67466 4.652318 18.94337 -0.2428652 -0 13.74447 -0 -8.674654 -17.56485 -1.873469 2.724802 -20.40939 -5.211149 -0 7.793642 -0 -2.854136 -3.97607 18.37839 0.4105666 -2.119976 11.02242 -1.121294 14.99392 -5.045075 -0.1514481 19.95072 2.708581 2.009751 -15.85811 2.545449 0.06021526 -30.5026 12.43323 86.23811 27.92635 -8.555 -0 0 28.52242 -17.53624 11.67024 10.5253 1.913909 -22.57664 -7.442083 -93.76717 9.267651 40.28162 0 0 -11.85435 10.34701 12.04964 3.295325
-1102.399 113.0372 2670.626 -7.235347 -2.223074 -65.46931 4.31022 20.06621 -0.5261238 -0 13.72881 -0 -8.592208 -17.6266 -1.866709 2.229441 -20.22093 -6.148837 -0 7.731777 -0 -3.696051 -4.705291 19.06137 0.447275 -2.04552 10.93212 -1.106777 14.98828 -5.038781 -0.1105043 19.98596 2.769953 1.898262 -16.23373 2.745314 -0.2721355 -30.43142 12.41483 86.70645 27.82317 -8.742458 -0 0 28.16778 -17.6389 11.56572 10.58968 1.872174 -22.49897 -7.348619 -93.62941 9.411612 39.99044 0 0 -12.0874 10.31015 11.90203 3.233346
-1107.589 112.0999 2674.072 -7.409934 -2.358699 -66.28229 3.929986 21.05628 -0.8125467 -0 13.79659 -0 -8.524202 -17.50904 -1.753249 1.707769 -20.15962 -7.021768 -0 7.836047 -0 -4.478979 -5.42385 19.68595 0.4776501 -1.961821 10.83306 -1.088492 14.97584 -5.034273 -0.06861985 20.03447 2.848161 1.794728 -16.6398 2.960498 -0.614865 -30.32936 12.39609 87.20561 27.7367 -8.963508 -0 0 27.7464 -17.7379 11.42409 10.63391 1.833973 -22.42179 -7.249388 -93.48085 9.579073 39.63625 0 0 -12.32793 10.28515 11.73195 3.143162
-1112.908 111.1869 2677.468 -7.511947 -2.494871 -67.10133 3.499834 21.94615 -1.083919 -0 14.04873 -0 -8.489201 -17.11421 -1.565577 1.135603 -20.13366 -7.862369 -0 8.146006 -0 -5.17173 -6.138797 20.28019 0.4999351 -1.871853 10.73009 -1.067398 14.95577 -5.031955 -0.0279248 20.09343 2.939052 1.703869 -17.05509 3.180278 -0.94862 -30.19901 12.37791 87.70845 27.67363 -9.207038 -0 0 27.27707 -17.82722 11.25247 10.65856 1.80123 -22.34719 -7.147475 -93.32583 9.765731 39.23331 0 0 -12.57305 10.26926 11.54461 3.036896
-1118.362 110.3207 2680.816 -7.583613 -2.669236 -67.91118 3.000806 22.74555 -1.322877 -0 14.6143 -0 -8.505895 -16.32068 -1.320609 0.487818 -20.05902 -8.695211 -0 8.703935 -0 -5.73979 -6.853448 20.85649 0.5121494 -1.774264 10.61961 -1.039819 14.92781 -5.03447 0.01132793 20.165 3.045888 1.62962 -17.48339 3.405326 -1.270642 -30.03152 12.3627 88.21811 27.63398 -9.48319 -0 0 26.74381 -17.90435 11.04338 10.65652 1.774136 -22.27842 -7.045688 -93.16108 9.971689 38.76346 0 0 -12.81872 10.26693 11.33599 2.9022
-1123.959 109.5381 2684.123 -7.656293 -2.914379 -68.68959 2.410578 23.43046 -1.50967 -0 15.67271 -0 -8.598819 -14.9679 -1.024436 -0.2599547 -19.84393 -9.534164 -0 9.559863 -0 -6.136815 -7.56431 21.41123 0.5116648 -1.667158 10.49554 -0.9998812 14.89159 -5.046319 0.04881903 20.25214 3.173489 1.577223 -17.93104 3.637189 -1.577158 -29.81359 12.35385 88.74055 27.61788 -9.808448 -0 0 26.12149 -17.9653 10.78683 10.61749 1.752891 -22.22067 -6.948195 -92.98056 10.19695 38.1987 0 0 -13.06229 10.28485 11.10093 2.720959
-1129.699 108.8958 2687.4 -7.751776 -3.256625 -69.4022 1.709093 23.92425 -1.62108 -0 17.47646 -0 -8.801755 -12.85042 -0.6735828 -1.126351 -19.37637 -10.377 -0 10.76337 -0 -6.300352 -8.257938 21.92009 0.4950766 -1.549055 10.34983 -0.9392038 14.84631 -5.074587 0.08347561 20.35743 3.327321 1.554203 -18.40181 3.87579 -1.858309 -29.52794 12.35588 89.27819 27.62845 -10.20415 -0 0 25.37988 -18.00264 10.4737 10.52815 1.738256 -22.1822 -6.861647 -92.77545 10.43875 37.50413 0 0 -13.30398 10.33269 10.8356 2.470617
-1135.572 108.4755 2690.657 -7.878398 -3.70748 -69.99682 0.8918979 24.06815 -1.633827 -0 20.36009 -0 -9.159141 -9.74005 -0.2547381 -2.112308 -18.51683 -11.19599 -0 12.33554 -0 -6.154975 -8.908487 22.3299 0.4584443 -1.419229 10.17101 -0.8457425 14.79028 -5.130232 0.1130938 20.48212 3.513902 1.570831 -18.89653 4.11923 -2.096296 -29.15196 12.37459 89.82943 27.67419 -10.69912 -0 0 24.48201 -18.00424 10.09804 10.37189 1.732116 -22.17566 -6.795868 -92.53215 10.68913 36.63532 0 0 -13.55081 10.42533 10.53895 2.121434
-1141.54 108.3835 2693.9 -8.024986 -4.245161 -70.40027 -0.001736775 23.58813 -1.537313 -0 24.68831 -0 -9.72287 -5.47603 0.2519221 -3.178798 -17.10635 -11.92693 -0 14.21218 -0 -5.632568 -9.482145 22.55386 0.3981815 -1.278352 9.942372 -0.702906 14.71976 -5.229313 0.1340091 20.62419 3.741191 1.640021 -19.41294 4.364105 -2.264208 -28.657 12.41628 90.3883 27.7723 -11.3319 -0 0 23.38462 -17.95248 9.66186 10.13011 1.738981 -22.21892 -6.763536 -92.22984 10.93149 35.53671 0 0 -13.82377 10.58533 10.21514 1.634526
-1147.521 108.7286 2697.114 -8.162683 -4.789986 -70.52727 -0.8487314 22.09532 -1.357957 -0 30.64786 -0 -10.53374 -0.1776579 0.8530942 -4.218458 -15.00763 -12.46814 -0 16.15982 -0 -4.721657 -9.958985 22.48776 0.3129349 -1.129746 9.640972 -0.4906736 14.62692 -5.392518 0.141217 20.77493 4.018599 1.77608 -19.94586 4.606799 -2.327394 -28.01087 12.48519 90.94361 27.95159 -12.1486 -0 0 22.04648 -17.82565 9.183318 9.787052 1.769331 -22.33398 -6.777027 -91.84011 11.13738 34.14602 0 0 -14.1666 10.84427 9.877065 0.9637907
